<?xml version="1.0" encoding="UTF-8" standalone="no"?>
<!DOCTYPE svg PUBLIC "-//W3C//DTD SVG 1.1//EN" "http://www.w3.org/Graphics/SVG/1.1/DTD/svg11.dtd">
<!-- Created with Vectornator (http://vectornator.io/) -->
<svg height="100%" stroke-miterlimit="10" style="fill-rule:nonzero;clip-rule:evenodd;stroke-linecap:round;stroke-linejoin:round;" version="1.1" viewBox="0 0 1024 1024" width="100%" xml:space="preserve" xmlns="http://www.w3.org/2000/svg" xmlns:vectornator="http://vectornator.io" xmlns:xlink="http://www.w3.org/1999/xlink">
<defs/>
<g id="Calque-1" vectornator:layerName="Calque 1">
<path d="M0 0C0 511.75 0 511.75 0 1023.5C511.75 1023.5 511.75 1023.5 1023.5 1023.5C1023.5 511.75 1023.5 511.75 1023.5 0C511.75 0 511.75 0 0 0Z" fill="#001f3b" fill-rule="nonzero" opacity="1" stroke="none"/>
<path d="M736.5 435.5C736.5 423.818 740.365 405.486 732.5 395C715.294 372.059 693.755 377.927 669 385C662.157 386.955 650.156 388.844 645 394C647.015 398.031 655.413 403.413 658 406C667.528 415.528 671.453 432.276 666 445C659.051 461.215 644.364 475.692 631 487C599.194 513.913 549.818 543.736 508.5 552C485.639 556.572 463.378 556.378 446.5 539.5C434.046 527.046 434.5 506.815 434.5 491C434.5 468.704 450.339 444.421 463.5 427.5C500.023 380.542 552.712 350.697 609.5 336.5C639.418 329.021 667.206 325.603 695 339.5C695.75 338.75 695.75 338.75 696.5 338C689.644 324.288 684.995 312.609 674.5 300.5C673.766 299.653 671.206 296.14 669.5 295.5C669.425 295.472 653.674 302.379 651.5 303C630.669 308.952 609.545 313.652 589 320.5C533.877 338.874 486.334 372.666 445 414C432.632 426.368 410.039 454.843 405.5 473C403.142 482.434 397.203 491.086 395 501C390.109 523.009 388.39 556.983 401 578C406.896 587.826 413.721 596.221 422 604.5C441.646 624.146 479.053 626.433 503.5 621C557.476 609.005 603.565 576.739 648 545C663.505 533.925 678.096 520.904 691.5 507.5C706.773 492.227 721.486 477.133 731.059 457.987C743.827 444.548 732.75 454.884 736.5 435.5Z" fill="#1bc7e3" fill-rule="nonzero" opacity="1" stroke="none"/>
<path d="M480.5 650.5C478.409 648.409 471.767 646.577 464.656 644.872C457.545 643.166 449.965 641.586 446 640C433.056 634.822 420.263 627.913 408.666 619.44C397.068 610.967 386.665 600.931 378.5 589.5C374.357 583.7 370.73 577.693 367.577 571.452C364.424 565.211 361.745 558.736 359.5 552C344.519 507.056 358.443 463.151 384.839 425.247C411.234 387.343 450.1 355.44 485 334.5C493.024 329.686 501.246 325.762 509.539 322.004C517.832 318.245 526.195 314.653 534.5 310.5C540.324 328.94 534.549 311.107 540.308 328.648C567.706 290.392 566.88 292.5 566.5 291.5C566.12 290.498 566.114 290.662 525 272.5C527.661 294.077 529.59 292.746 527.5 294C524.767 295.64 510.548 299.781 507.5 301C501.16 303.536 494.953 306.394 488.747 309.251C482.541 312.109 467.913 318.319 463.351 321.093C458.79 323.868 433.659 336.614 429.578 339.223C425.497 341.831 421.474 344.616 417.5 347C402.596 355.943 388.615 366.049 375.288 376.991C361.961 387.933 349.288 399.712 337 412C331.292 417.708 324.822 425.008 319.014 432.793C309.974 445.42 298.018 467.123 294.57 478.174C290.715 487.145 285.926 501.52 284.5 511.5C280.075 542.477 284.035 572.603 295.434 599.734C306.832 626.866 325.67 651.002 351 670C358.287 675.465 365.845 680.538 373.676 685.083C381.508 689.629 389.615 693.646 398 697C399.329 697.532 402.284 699.117 405.242 700.401C408.2 701.686 411.16 702.67 412.5 702C417.267 699.617 421.738 695.857 426.094 691.885C430.451 687.914 434.693 683.731 439 680.5C445.868 675.349 452.879 670.372 459.855 665.422C466.831 660.471 473.772 655.546 480.5 650.5Z" fill="#f8c823" fill-rule="nonzero" opacity="1" stroke="none"/>
<path d="M695 282C692.834 280.917 677.956 277.044 676.5 278.5C681.751 283.751 687.249 288.749 692.5 294C704.43 305.93 711.404 321.759 717.5 337C718.995 340.737 722.293 347.122 721 351C703.562 342.281 679.793 349.916 662 355C608.096 370.401 557.154 405.75 516.5 443.5C502.972 456.062 490.473 469.393 478 483C481.158 486.158 492.574 481.309 496.5 480C514.434 474.022 527.626 463.982 543 453C581.904 425.211 622.576 399.621 668.5 386.5C689.009 380.64 711.712 373.712 728.5 390.5C741.094 403.094 735.828 438.207 733.5 454.5C725.569 510.02 703.16 559.066 675 606C670.07 614.217 662.174 622.152 658 630.5C657.62 631.26 631.552 666.052 635 669.5C655.24 649.26 678.434 632.79 697.5 611C748.983 552.162 774.129 469.775 761 391C754.961 354.767 743.06 320.181 731.5 285.5C713.348 231.045 684.407 184.423 639.5 147C627.356 136.88 613.71 126.105 599.5 119C597.627 118.064 587.771 111.958 586.5 114.5C585.684 116.133 589.712 121.923 590.5 123.5C595.546 133.592 598.055 143.733 608.5 150C612.188 152.213 619.952 150.612 622.5 153C650.371 179.13 674.89 214.67 687 251C689.091 257.273 696.786 276.643 695 282Z" fill="#83ebf4" fill-rule="nonzero" opacity="1" stroke="none"/>
<path d="M709 516C705.488 519.512 702.97 524.03 699.5 527.5C673.831 553.169 643.713 577.272 612.5 596C603.885 601.169 595.318 606.591 586.5 611C581.228 613.636 558.764 625.194 553 627.5C540.601 632.46 526.705 637.177 514 640C506.146 641.745 498.277 641.445 490.5 643C487.719 643.556 457.722 665.438 448 673C432.695 684.904 418.329 698.919 402.5 710C402.201 710.209 394.41 704.409 389.5 708.5C380.783 715.764 366.741 725.639 360.5 735C357.232 739.901 363.736 744.426 368 744C372.438 743.556 378.106 736.163 381 733.5C384.474 730.304 387.814 726.949 391.5 724C392.876 725.376 392.476 724.505 392.5 726.5C392.661 739.833 394.194 753.219 393 766.5C392.428 772.867 358.369 788.943 365.5 797.5C371.898 805.177 379.175 795.789 384 791.5C392.386 784.046 401.02 776.849 409.5 769.5C426.901 754.419 482.754 708.808 525 681.5C575.631 648.772 635.062 613.542 676.5 567.5C681.152 562.332 681.23 562.38 685.5 557.5C690.429 551.867 713.061 522.769 709 516Z" fill="#0593ee" fill-rule="nonzero" opacity="1" stroke="none"/>
<path d="M658.5 630C655.36 633.14 651.645 636.173 647.512 639.071C625.499 654.505 591.617 666.097 569.5 669.5C559.366 671.059 548.895 669.5 538 673.5C528.521 676.98 484.518 707.42 471.52 718.252C474.488 721.219 503.369 721.39 514.5 720.5C556.947 717.104 595.792 703.682 628 675.5C638.674 666.16 662.001 633.501 658.5 630Z" fill="#f3b607" fill-rule="nonzero" opacity="1" stroke="none"/>
<path d="M624 226C593.249 229.34 584.929 263.429 606.5 285C613.786 292.286 625.624 292.5 635 292.5C648.571 292.5 664.027 277.955 670 268C672.355 264.076 676.281 254.472 673.5 250.5C670.538 246.268 664.339 243.603 660 241C646.665 232.999 640.133 224.248 624 226Z" fill="#a6f6f9" fill-rule="nonzero" opacity="1" stroke="none"/>
<path d="M373.5 750.5C365.775 749.995 360.772 760.19 355 765C340.427 777.144 324.921 789.079 311.5 802.5C306.348 807.652 315.568 812 319.5 812C323.758 812 332.051 802.056 335 799.5C338.483 796.481 342 793.5 345.5 790.5C349.356 787.195 353.215 783.886 357 780.5C362.438 775.635 397.173 752.049 373.5 750.5Z" fill="#0de6ed" fill-rule="nonzero" opacity="1" stroke="none"/>
</g>
</svg>
